# xmcd CD database file
#
# Track frame offsets:
#	150
#	19611
#	38381
#	58986
#	78279
#
# Disc length: 1297 seconds
#
# Revision: 0
# Processed by: cddbd v1.5.1PL0 Copyright (c) Steve Scherf et al.
# Submitted via: CDex 1.51
#
DISCID=2f050f05
DTITLE=PaleTone - Spiral Miracle
DYEAR=2000
DGENRE=JPop
TTITLE0=Spiral Miracle
TTITLE1=ステキに2人
TTITLE2=ありふれた恋の結末
TTITLE3=たからもの
TTITLE4=Spiral Miracle (カラオケバージョン)
EXTD=YEAR: 2000
EXTT0=
EXTT1=
EXTT2=
EXTT3=
EXTT4=
PLAYORDER=
